<svg id="basura" xmlns="http://www.w3.org/2000/svg" viewBox="0 0 113.58 138.42"><defs><style>.cls-1{fill:none;stroke:#fff;stroke-miterlimit:10;stroke-width:8px;}</style></defs><title>basura</title><line class="cls-1" x1="27.73" y1="51.14" x2="32.29" y2="112.58"/><line class="cls-1" x1="56.29" y1="44.66" x2="56.29" y2="118.1"/><line class="cls-1" x1="85.09" y1="51.14" x2="80.29" y2="112.58"/><path class="cls-1" d="M1335.44,184.21h99.36a4.53,4.53,0,0,0,3.12-2.46V172s.36-2.43-3.24-2.79h-99.24s-3.18.36-3.09,2.88v9.54A3,3,0,0,0,1335.44,184.21Z" transform="translate(-1328.35 -151.55)"/><path class="cls-1" d="M1431.44,184.21l-8.1,94c-.63,7.11-5.85,7.74-5.85,7.74h-65c-5-.18-7.11-7-7.11-7l-6.93-94.74" transform="translate(-1328.35 -151.55)"/><path class="cls-1" d="M1365,169.24s17-30.64,39.34-.25" transform="translate(-1328.35 -151.55)"/></svg>