<svg id="compu" xmlns="http://www.w3.org/2000/svg" viewBox="0 0 355.62 265.47"><defs><style>.cls-1{fill:none;stroke:#fff;stroke-miterlimit:10;}</style></defs><title>compu2</title><path class="cls-1" d="M794,565.62l-.4,25.92s-2,9.72-10.08,9.72H721s-7.47-1-10.44-10.62l-.18-91.86h-1.32V485.7h1.26l.12-3.84h-1.38V468.78h1.74V462.6h-1.74v-6.36h1.44L710.35,441s2.18-11,11.6-11.78l47.9-.36.23-87.48a7.1,7.1,0,0,1,5.89-4.54l261.62,0s5,1.51,5.22,5.92V524.1s-1.13,4.17-4.64,4.57h-2.72l0,1.44,2.92.07,25.35,23.39,0,6.73-5.06,5.82Z" transform="translate(-708.59 -336.29)"/><path class="cls-1" d="M743.62,434.91H760a3.67,3.67,0,0,1,0,6H743.62S740.23,437.85,743.62,434.91Z" transform="translate(-708.59 -336.29)"/><path class="cls-1" d="M769.85,428.86h14.22s9.23,2.42,10.53,13.55l0,30.76h.75v21h-.75L794,565.62" transform="translate(-708.59 -336.29)"/><path class="cls-1" d="M721.09,598.45l62.26,0s5.27-.45,7.43-6.77l.09-152.24s-1.83-5.64-6.75-6.74h-63s-6.66,1.22-7.47,7.55V590.91S715.79,598.45,721.09,598.45Z" transform="translate(-708.59 -336.29)"/><line class="cls-1" x1="326.87" y1="192.37" x2="85.73" y2="192.37"/><polyline class="cls-1" points="85.81 183.36 327.5 183.37 327.55 10.14 68.79 10.14 68.79 92.57"/><polyline class="cls-1" points="326.84 193.81 85.71 193.81 85.58 208.18 327.49 208.18 315.61 195.35 85.58 195.43"/><polygon class="cls-1" points="137.06 214.75 257.9 214.75 254.66 208.99 140.9 208.99 137.06 214.75"/><path class="cls-1" d="M847.15,393.13h-4v-.89h12.2v.89H852c0,3-1,5.17-2.9,6.48a10.62,10.62,0,0,1-6.06,2,9.62,9.62,0,0,1-7.7-3.69,13.08,13.08,0,0,1-3.08-8.63,12.9,12.9,0,0,1,3.15-8.68,9.92,9.92,0,0,1,7.84-3.66,8.58,8.58,0,0,1,4.64,1.4,2.4,2.4,0,0,0,.93.43c.38,0,.75-.34,1.13-1h.79l.24,6.4H850q-1.47-6.33-6.91-6.33a5.71,5.71,0,0,0-4.13,1.28,5.46,5.46,0,0,0-1.59,3.21,39.23,39.23,0,0,0-.29,5.55,53.31,53.31,0,0,0,.43,8.6,5.19,5.19,0,0,0,1.76,3.17,5.08,5.08,0,0,0,3.27,1.06,5.84,5.84,0,0,0,2.75-.63,2.82,2.82,0,0,0,1.52-1.89,17.42,17.42,0,0,0,.3-3.75Z" transform="translate(-708.59 -336.29)"/><path class="cls-1" d="M865.88,378.35v10.11H868a7.43,7.43,0,0,0,1.91-.22,2.64,2.64,0,0,0,1.41-1.19,6.27,6.27,0,0,0,.71-3h.91v10H872c-.1-1.9-.46-3.15-1.1-3.75a4.12,4.12,0,0,0-2.93-.91h-2.12v10.78h4.79q4.08,0,5.66-1.72a8.78,8.78,0,0,0,1.87-5.28h.89l-.22,7.89H858v-.89h3.74V378.35H858v-.9h20l.41,6.29h-.9a6.77,6.77,0,0,0-1.88-4.13q-1.43-1.26-4.75-1.26Z" transform="translate(-708.59 -336.29)"/><path class="cls-1" d="M897.36,377.19l.1,6.12h-.82q-1.75-5.51-6.21-5.51a5.16,5.16,0,0,0-3.82,1.37,4,4,0,0,0-1.36,2.82,2.88,2.88,0,0,0,1.13,2.3,9.3,9.3,0,0,0,4.14,1.47A18.68,18.68,0,0,1,895.1,387a6.36,6.36,0,0,1,2.65,2.49,7.41,7.41,0,0,1,1.08,4,7.93,7.93,0,0,1-2.25,5.77,7.57,7.57,0,0,1-5.6,2.3,9,9,0,0,1-5.43-2L883.89,401h-.61v-6.59H884a10.08,10.08,0,0,0,2.9,4.68,6.25,6.25,0,0,0,4.08,1.56,6.36,6.36,0,0,0,4-1.45,4.48,4.48,0,0,0,1.83-3.66,4.27,4.27,0,0,0-1.27-3.14,7.53,7.53,0,0,0-4.13-1.76,21.24,21.24,0,0,1-4.39-1.12,6.05,6.05,0,0,1-2.62-2.24,6.13,6.13,0,0,1-1.09-3.52,7,7,0,0,1,1.9-4.77,6.6,6.6,0,0,1,5.15-2.1,8.42,8.42,0,0,1,5.08,1.72,6.21,6.21,0,0,0,1.13-1.44Z" transform="translate(-708.59 -336.29)"/><path class="cls-1" d="M902.24,377.45h20.1l.61,8h-.9c-.55-2.69-1.28-4.54-2.18-5.57a4.52,4.52,0,0,0-3.58-1.55h-1.92v21.78h4.22V401H906v-.89h4.22V378.35h-1.92a4.52,4.52,0,0,0-3.58,1.55c-.9,1-1.63,2.88-2.18,5.57h-.9Z" transform="translate(-708.59 -336.29)"/><path class="cls-1" d="M937.66,401.57a9.78,9.78,0,0,1-7.76-3.83,12.65,12.65,0,0,1-3.19-8.19,12.84,12.84,0,0,1,3.35-8.94,10.21,10.21,0,0,1,7.78-3.7,9.76,9.76,0,0,1,7.47,3.76,12.79,12.79,0,0,1,0,17.18A10,10,0,0,1,937.66,401.57Zm.07-23.77a6.87,6.87,0,0,0-3.47.89,4.67,4.67,0,0,0-2.09,3.09,35.89,35.89,0,0,0-.55,7.66,45.69,45.69,0,0,0,.31,6,7,7,0,0,0,1.61,3.73,5.12,5.12,0,0,0,4.05,1.47,7.28,7.28,0,0,0,3.39-.89,4.72,4.72,0,0,0,2.21-3.53,45.14,45.14,0,0,0,.52-8.08,24.25,24.25,0,0,0-.64-6.82,4.79,4.79,0,0,0-2.06-2.71A6.28,6.28,0,0,0,937.73,377.8Z" transform="translate(-708.59 -336.29)"/><path class="cls-1" d="M956.49,400.13V378.35h-3.71v-.9H965.7a16.49,16.49,0,0,1,4.16.44,5.5,5.5,0,0,1,2.8,1.82,4.73,4.73,0,0,1,1.18,3.17,4.41,4.41,0,0,1-1.72,3.62,13.07,13.07,0,0,1-5.84,2.1v.08a10.13,10.13,0,0,1,4.84,2.25c1.26,1.12,1.89,3,1.89,5.66a5.11,5.11,0,0,0,.54,2.93,1.83,1.83,0,0,0,1.49.64,5.57,5.57,0,0,0,1.47-.24v.86a9.07,9.07,0,0,1-3,.53c-1.93,0-3.3-.54-4.1-1.62a5.2,5.2,0,0,1-1.16-3.17l.07-3a5.59,5.59,0,0,0-1-3.09q-1-1.51-4.51-1.52h-2.2v11.2h3.71V401h-11.6v-.89Zm4.18-21.78v9.75h3.17a13.58,13.58,0,0,0,3.11-.27,2.69,2.69,0,0,0,1.71-1.42,7.87,7.87,0,0,0,.64-3.67,5.34,5.34,0,0,0-.65-3,2.57,2.57,0,0,0-1.57-1.17,10.55,10.55,0,0,0-2.42-.22Z" transform="translate(-708.59 -336.29)"/><path class="cls-1" d="M871.11,443.33V421.55h-3.67v-.9h11.13a17.07,17.07,0,0,1,6.32,1.05,9,9,0,0,1,4.38,4.09,13.07,13.07,0,0,1,1.76,6.62,12.17,12.17,0,0,1-1.93,6.75,10.1,10.1,0,0,1-4.46,4,16,16,0,0,1-6.14,1H867.44v-.89Zm4.19-21.78v21.78h3.06a14.56,14.56,0,0,0,3.92-.44A4.46,4.46,0,0,0,884.8,441a9.09,9.09,0,0,0,1.34-3.74,39.48,39.48,0,0,0,.35-5.93,14.88,14.88,0,0,0-1.11-6.55,5,5,0,0,0-2.74-2.68,13.92,13.92,0,0,0-4.21-.52Z" transform="translate(-708.59 -336.29)"/><path class="cls-1" d="M903,421.55v10.11h2.12a7.43,7.43,0,0,0,1.91-.22,2.64,2.64,0,0,0,1.41-1.19,6.27,6.27,0,0,0,.71-3h.91v10h-.91c-.1-1.9-.46-3.15-1.1-3.75a4.12,4.12,0,0,0-2.93-.91H903v10.78h4.79q4.08,0,5.66-1.72a8.78,8.78,0,0,0,1.87-5.28h.89l-.22,7.89h-20.9v-.89h3.74V421.55h-3.74v-.9h20l.41,6.3h-.9a6.77,6.77,0,0,0-1.88-4.14q-1.42-1.26-4.74-1.26Z" transform="translate(-708.59 -336.29)"/><path class="cls-1" d="M832.11,463.85H852.2l.61,8h-.89c-.55-2.69-1.28-4.54-2.19-5.57a4.52,4.52,0,0,0-3.58-1.55h-1.91v21.78h4.22v.89H835.85v-.89h4.22V464.75h-1.92a4.51,4.51,0,0,0-3.57,1.55c-.91,1-1.64,2.88-2.19,5.57h-.9Z" transform="translate(-708.59 -336.29)"/><path class="cls-1" d="M866.53,480.08H859l-2.41,6.45H861v.89h-8.54v-.89h3.25l8.59-23.22h.55l8.24,23.22h3.17v.89H865v-.89h3.82Zm-7.16-.9h6.84l-3.32-9.44h-.07Z" transform="translate(-708.59 -336.29)"/><path class="cls-1" d="M883,486.53V464.75H879.3v-.9h12.92a16.44,16.44,0,0,1,4.16.44,5.53,5.53,0,0,1,2.81,1.82,4.77,4.77,0,0,1,1.17,3.17,4.41,4.41,0,0,1-1.72,3.62,13,13,0,0,1-5.84,2.1v.08a10.17,10.17,0,0,1,4.85,2.25c1.26,1.12,1.89,3,1.89,5.66a5.22,5.22,0,0,0,.53,2.93,1.84,1.84,0,0,0,1.49.64,5.7,5.7,0,0,0,1.48-.24v.86a9.13,9.13,0,0,1-3,.53c-1.93,0-3.3-.54-4.09-1.62a5.08,5.08,0,0,1-1.16-3.17l.07-3a5.53,5.53,0,0,0-1-3.09q-1-1.52-4.51-1.52H887.2v11.2h3.71v.89H879.3v-.89Zm4.19-21.78v9.75h3.16a13.52,13.52,0,0,0,3.11-.27,2.71,2.71,0,0,0,1.72-1.42,8,8,0,0,0,.64-3.67,5.43,5.43,0,0,0-.65-3A2.62,2.62,0,0,0,893.6,465a10.51,10.51,0,0,0-2.41-.22Z" transform="translate(-708.59 -336.29)"/><path class="cls-1" d="M914.14,464.75v10.11h2.13a7.43,7.43,0,0,0,1.91-.22,2.64,2.64,0,0,0,1.41-1.19,6.3,6.3,0,0,0,.71-3h.91v10h-.91c-.1-1.9-.46-3.15-1.1-3.75a4.12,4.12,0,0,0-2.93-.91h-2.13v10.78h4.8c2.72,0,4.61-.57,5.65-1.72a8.72,8.72,0,0,0,1.88-5.28h.89l-.23,7.89h-20.9v-.89H910V464.75h-3.75v-.9h20l.41,6.29h-.9A6.77,6.77,0,0,0,923.9,466q-1.42-1.26-4.75-1.26Z" transform="translate(-708.59 -336.29)"/><path class="cls-1" d="M944.5,480.08H937l-2.4,6.45H939v.89h-8.55v-.89h3.25l8.6-23.22h.54l8.25,23.22h3.16v.89H943v-.89h3.81Zm-7.15-.9h6.84l-3.33-9.44h-.07Z" transform="translate(-708.59 -336.29)"/><path class="cls-1" d="M971.12,463.59l.1,6.12h-.83q-1.75-5.5-6.2-5.51a5.15,5.15,0,0,0-3.82,1.37,4,4,0,0,0-1.37,2.82,2.89,2.89,0,0,0,1.14,2.3,9.2,9.2,0,0,0,4.14,1.47,18.68,18.68,0,0,1,4.58,1.26,6.36,6.36,0,0,1,2.65,2.49,7.41,7.41,0,0,1,1.08,4,7.9,7.9,0,0,1-2.26,5.77,7.53,7.53,0,0,1-5.6,2.3,9,9,0,0,1-5.43-2l-1.65,1.47H957v-6.59h.75a10.08,10.08,0,0,0,2.9,4.68,6.21,6.21,0,0,0,4.08,1.56,6.34,6.34,0,0,0,4-1.45,4.46,4.46,0,0,0,1.84-3.66,4.27,4.27,0,0,0-1.27-3.14,7.53,7.53,0,0,0-4.13-1.76,21.24,21.24,0,0,1-4.39-1.12,6.42,6.42,0,0,1-3.71-5.76,6.9,6.9,0,0,1,1.9-4.77,6.58,6.58,0,0,1,5.15-2.1,8.42,8.42,0,0,1,5.08,1.72,6.17,6.17,0,0,0,1.12-1.44Z" transform="translate(-708.59 -336.29)"/><path class="cls-1" d="M732.21,491h-1.44v-.32h4.41V491H734a2.61,2.61,0,0,1-1.05,2.34,3.88,3.88,0,0,1-2.19.71,3.46,3.46,0,0,1-2.78-1.34,4.71,4.71,0,0,1-1.11-3.11,4.64,4.64,0,0,1,1.13-3.14,3.59,3.59,0,0,1,2.83-1.32,3.06,3.06,0,0,1,1.68.51.79.79,0,0,0,.34.15c.13,0,.27-.12.4-.36h.29l.09,2.31h-.32c-.36-1.53-1.19-2.29-2.5-2.29a2,2,0,0,0-1.49.46,2,2,0,0,0-.58,1.16,14.73,14.73,0,0,0-.1,2,19.9,19.9,0,0,0,.15,3.1,1.94,1.94,0,0,0,.64,1.15,1.82,1.82,0,0,0,1.18.38,2.16,2.16,0,0,0,1-.22,1,1,0,0,0,.54-.69,5.74,5.74,0,0,0,.11-1.35Z" transform="translate(-708.59 -336.29)"/><path class="cls-1" d="M739,485.65v3.65h.77a2.73,2.73,0,0,0,.69-.08,1,1,0,0,0,.5-.43,2.23,2.23,0,0,0,.26-1.09h.33v3.61h-.33a2,2,0,0,0-.4-1.36,1.47,1.47,0,0,0-1-.33H739v3.9h1.73a2.72,2.72,0,0,0,2-.62,3.16,3.16,0,0,0,.68-1.91h.32l-.08,2.85h-7.55v-.32h1.35v-7.87h-1.35v-.33h7.24l.15,2.28h-.33a2.45,2.45,0,0,0-.68-1.5,2.58,2.58,0,0,0-1.71-.45Z" transform="translate(-708.59 -336.29)"/><path class="cls-1" d="M750.35,485.23l0,2.21h-.3c-.42-1.33-1.17-2-2.24-2a1.86,1.86,0,0,0-1.38.49,1.44,1.44,0,0,0-.49,1,1,1,0,0,0,.41.83,3.22,3.22,0,0,0,1.49.53,6.87,6.87,0,0,1,1.66.46,2.29,2.29,0,0,1,1,.9,2.68,2.68,0,0,1,.39,1.44,2.89,2.89,0,0,1-.82,2.09,2.73,2.73,0,0,1-2,.83,3.29,3.29,0,0,1-2-.73l-.6.53h-.22v-2.38h.27a3.66,3.66,0,0,0,1.05,1.69,2.22,2.22,0,0,0,1.47.56,2.29,2.29,0,0,0,1.46-.52,1.62,1.62,0,0,0,.66-1.32,1.55,1.55,0,0,0-.46-1.14,2.72,2.72,0,0,0-1.49-.63,8.11,8.11,0,0,1-1.59-.41,2.12,2.12,0,0,1-.94-.81,2.2,2.2,0,0,1-.4-1.27,2.48,2.48,0,0,1,.69-1.72,2.38,2.38,0,0,1,1.86-.76,3,3,0,0,1,1.84.62,2.32,2.32,0,0,0,.4-.52Z" transform="translate(-708.59 -336.29)"/><path class="cls-1" d="M752.12,485.32h7.26l.22,2.9h-.32a4.61,4.61,0,0,0-.79-2,1.63,1.63,0,0,0-1.3-.56h-.69v7.87H758v.32h-4.56v-.32H755v-7.87h-.7a1.62,1.62,0,0,0-1.29.56,4.49,4.49,0,0,0-.79,2h-.32Z" transform="translate(-708.59 -336.29)"/><path class="cls-1" d="M764.92,494a3.52,3.52,0,0,1-2.81-1.39,4.53,4.53,0,0,1-1.15-3,4.65,4.65,0,0,1,1.21-3.23,3.69,3.69,0,0,1,2.81-1.33,3.53,3.53,0,0,1,2.7,1.36,4.63,4.63,0,0,1,0,6.2A3.61,3.61,0,0,1,764.92,494Zm0-8.59a2.5,2.5,0,0,0-1.25.32,1.74,1.74,0,0,0-.76,1.12,13.21,13.21,0,0,0-.2,2.77,15.47,15.47,0,0,0,.12,2.17,2.49,2.49,0,0,0,.58,1.35,1.83,1.83,0,0,0,1.46.53,2.5,2.5,0,0,0,1.22-.32,1.73,1.73,0,0,0,.81-1.27,17.24,17.24,0,0,0,.18-2.92,8.66,8.66,0,0,0-.23-2.47,1.72,1.72,0,0,0-.74-1A2.31,2.31,0,0,0,764.94,485.45Z" transform="translate(-708.59 -336.29)"/><path class="cls-1" d="M771.72,493.52v-7.87h-1.34v-.33h4.67a6.14,6.14,0,0,1,1.5.16,2,2,0,0,1,1,.66,1.68,1.68,0,0,1,.43,1.15,1.6,1.6,0,0,1-.62,1.3,4.7,4.7,0,0,1-2.11.76v0a3.61,3.61,0,0,1,1.75.82,2.62,2.62,0,0,1,.68,2,1.88,1.88,0,0,0,.19,1.06.68.68,0,0,0,.54.23,1.89,1.89,0,0,0,.53-.09v.31a3.13,3.13,0,0,1-1.06.19,1.71,1.71,0,0,1-1.48-.58,1.83,1.83,0,0,1-.42-1.14l0-1.08a2,2,0,0,0-.36-1.12c-.23-.37-.78-.55-1.62-.55h-.8v4h1.34v.32h-4.19v-.32Zm1.51-7.87v3.52h1.14a4.63,4.63,0,0,0,1.13-.1,1,1,0,0,0,.62-.51,2.91,2.91,0,0,0,.23-1.32,1.93,1.93,0,0,0-.24-1.09.91.91,0,0,0-.56-.42,3.61,3.61,0,0,0-.88-.08Z" transform="translate(-708.59 -336.29)"/><path class="cls-1" d="M740.87,509.13v-7.87h-1.33v-.33h4a6.27,6.27,0,0,1,2.29.38,3.24,3.24,0,0,1,1.58,1.48,4.65,4.65,0,0,1,.64,2.39,4.41,4.41,0,0,1-.7,2.44,3.6,3.6,0,0,1-1.61,1.45,5.85,5.85,0,0,1-2.22.38h-4v-.32Zm1.51-7.87v7.87h1.11a5.5,5.5,0,0,0,1.42-.16,1.7,1.7,0,0,0,.91-.69,3.41,3.41,0,0,0,.48-1.36,13.7,13.7,0,0,0,.13-2.14,5.5,5.5,0,0,0-.4-2.37,1.82,1.82,0,0,0-1-1,5.34,5.34,0,0,0-1.53-.18Z" transform="translate(-708.59 -336.29)"/><path class="cls-1" d="M752.4,501.26v3.65h.77a2.73,2.73,0,0,0,.69-.08.93.93,0,0,0,.51-.43,2.23,2.23,0,0,0,.26-1.09H755v3.61h-.33a2.1,2.1,0,0,0-.4-1.36,1.48,1.48,0,0,0-1.06-.33h-.77v3.9h1.74a2.72,2.72,0,0,0,2-.62,3.16,3.16,0,0,0,.68-1.91h.32l-.08,2.85h-7.55v-.32h1.35v-7.87h-1.35v-.33h7.24l.14,2.28h-.32a2.51,2.51,0,0,0-.68-1.5,2.58,2.58,0,0,0-1.71-.45Z" transform="translate(-708.59 -336.29)"/><path class="cls-1" d="M726.78,516.54H734l.22,2.9h-.33a4.38,4.38,0,0,0-.79-2,1.59,1.59,0,0,0-1.29-.56h-.69v7.87h1.52v.32h-4.55v-.32h1.52v-7.87H729a1.62,1.62,0,0,0-1.29.56,4.49,4.49,0,0,0-.79,2h-.33Z" transform="translate(-708.59 -336.29)"/><path class="cls-1" d="M739.21,522.4h-2.7l-.87,2.34h1.57v.32h-3.08v-.32h1.17l3.11-8.39h.19l3,8.39h1.15v.32h-4.06v-.32h1.38Zm-2.58-.32h2.47l-1.2-3.41h0Z" transform="translate(-708.59 -336.29)"/><path class="cls-1" d="M745.17,524.74v-7.87h-1.34v-.33h4.67a6.14,6.14,0,0,1,1.5.16,2,2,0,0,1,1,.66,1.68,1.68,0,0,1,.43,1.15,1.6,1.6,0,0,1-.62,1.3,4.7,4.7,0,0,1-2.11.76v0a3.69,3.69,0,0,1,1.75.81,2.66,2.66,0,0,1,.68,2.05,1.86,1.86,0,0,0,.2,1.06.65.65,0,0,0,.53.23,2,2,0,0,0,.54-.09V525a3.23,3.23,0,0,1-1.07.19,1.72,1.72,0,0,1-1.48-.58,1.84,1.84,0,0,1-.42-1.15l0-1.08a2.1,2.1,0,0,0-.35-1.11c-.24-.37-.79-.55-1.63-.55h-.8v4H748v.32h-4.19v-.32Zm1.51-7.87v3.52h1.15a4.59,4.59,0,0,0,1.12-.1,1,1,0,0,0,.62-.51,2.93,2.93,0,0,0,.23-1.33,2,2,0,0,0-.23-1.08A1,1,0,0,0,749,517a3.56,3.56,0,0,0-.88-.08Z" transform="translate(-708.59 -336.29)"/><path class="cls-1" d="M756.42,516.87v3.65h.77a2.73,2.73,0,0,0,.69-.08.91.91,0,0,0,.5-.43,2.12,2.12,0,0,0,.26-1.09H759v3.61h-.33a2,2,0,0,0-.39-1.36,1.51,1.51,0,0,0-1.06-.33h-.77v3.9h1.73a2.73,2.73,0,0,0,2.05-.62,3.22,3.22,0,0,0,.67-1.91h.33l-.09,2.85h-7.55v-.32h1.35v-7.87h-1.35v-.33h7.24l.15,2.28h-.33a2.45,2.45,0,0,0-.68-1.5,2.58,2.58,0,0,0-1.71-.45Z" transform="translate(-708.59 -336.29)"/><path class="cls-1" d="M767.39,522.4h-2.71l-.87,2.34h1.58v.32H762.3v-.32h1.18l3.1-8.39h.2l3,8.39h1.14v.32h-4.06v-.32h1.38Zm-2.59-.32h2.47l-1.2-3.41h0Z" transform="translate(-708.59 -336.29)"/><path class="cls-1" d="M777,516.45l0,2.21h-.3c-.42-1.33-1.17-2-2.24-2a1.86,1.86,0,0,0-1.38.49,1.44,1.44,0,0,0-.49,1,1,1,0,0,0,.41.83,3.22,3.22,0,0,0,1.49.53,6.87,6.87,0,0,1,1.66.46,2.29,2.29,0,0,1,1,.9,2.68,2.68,0,0,1,.39,1.44,2.85,2.85,0,0,1-.82,2.09,2.73,2.73,0,0,1-2,.83,3.29,3.29,0,0,1-2-.73l-.6.53h-.22v-2.38h.27a3.66,3.66,0,0,0,1,1.69,2.26,2.26,0,0,0,2.93,0,1.62,1.62,0,0,0,.66-1.33,1.54,1.54,0,0,0-.46-1.13,2.62,2.62,0,0,0-1.49-.63,7.79,7.79,0,0,1-1.58-.41,2.15,2.15,0,0,1-.95-.81,2.2,2.2,0,0,1-.4-1.27,2.52,2.52,0,0,1,.69-1.73,2.4,2.4,0,0,1,1.86-.75,3,3,0,0,1,1.84.62,2.32,2.32,0,0,0,.4-.52Z" transform="translate(-708.59 -336.29)"/></svg>